REM DIRINDEX 1\2\3,1\2\4,1\2\5,1\2\6
REM DIRNAME folder01,folder02,folder03,folder04,folder05,folder06
TITLE ""
FILE "128 128.mp3" MP3
  TRACK 01 AUDIO
    TITLE "0:"
    INDEX 01 00:00:00
  TRACK 02 AUDIO
    TITLE "3:cjc157_4784"
    INDEX 01 00:00:11
  TRACK 03 AUDIO
    TITLE "0:"
    INDEX 01 00:01:42
  TRACK 04 AUDIO
    TITLE "4:cjc157_4785"
    INDEX 01 00:02:12
  TRACK 05 AUDIO
    TITLE "0:"
    INDEX 01 00:03:21
  TRACK 06 AUDIO
    TITLE "5:cjc157_4786"
    INDEX 01 00:03:66
  TRACK 07 AUDIO
    TITLE "0:"
    INDEX 01 00:05:67
  TRACK 08 AUDIO
    TITLE "5:cjc157_4787"
    INDEX 01 00:06:41
  TRACK 09 AUDIO
    TITLE "0:"
    INDEX 01 00:08:36
  TRACK 10 AUDIO
    TITLE "5:cjc157_4788"
    INDEX 01 00:09:12
  TRACK 11 AUDIO
    TITLE "0:"
    INDEX 01 00:11:09
  TRACK 12 AUDIO
    TITLE "3:cjc157_4789"
    INDEX 01 00:11:54
  TRACK 13 AUDIO
    TITLE "0:"
    INDEX 01 00:13:10
  TRACK 14 AUDIO
    TITLE "4:cjc157_4790"
    INDEX 01 00:13:53
  TRACK 15 AUDIO
    TITLE "0:"
    INDEX 01 00:15:07
  TRACK 16 AUDIO
    TITLE "5:cjc157_4791"
    INDEX 01 00:15:52
  TRACK 17 AUDIO
    TITLE "0:"
    INDEX 01 00:17:63
  TRACK 18 AUDIO
    TITLE "5:cjc157_4792"
    INDEX 01 00:18:33
  TRACK 19 AUDIO
    TITLE "0:"
    INDEX 01 00:20:24
  TRACK 20 AUDIO
    TITLE "3:cjc157_4793"
    INDEX 01 00:20:71
  TRACK 21 AUDIO
    TITLE "0:"
    INDEX 01 00:22:15
  TRACK 22 AUDIO
    TITLE "4:cjc157_4794"
    INDEX 01 00:22:60
  TRACK 23 AUDIO
    TITLE "0:"
    INDEX 01 00:23:73
  TRACK 24 AUDIO
    TITLE "5:cjc157_4795"
    INDEX 01 00:24:43
  TRACK 25 AUDIO
    TITLE "0:"
    INDEX 01 00:26:28
  TRACK 26 AUDIO
    TITLE "5:cjc157_4796"
    INDEX 01 00:27:00
  TRACK 27 AUDIO
    TITLE "0:"
    INDEX 01 00:28:53
  TRACK 28 AUDIO
    TITLE "3:cjc157_4797"
    INDEX 01 00:29:25
  TRACK 29 AUDIO
    TITLE "0:"
    INDEX 01 00:30:44
  TRACK 30 AUDIO
    TITLE "4:cjc157_4798"
    INDEX 01 00:31:16
  TRACK 31 AUDIO
    TITLE "0:"
    INDEX 01 00:32:35
  TRACK 32 AUDIO
    TITLE "5:cjc157_4799"
    INDEX 01 00:33:05
  TRACK 33 AUDIO
    TITLE "0:"
    INDEX 01 00:35:37
  TRACK 34 AUDIO
    TITLE "5:cjc157_4800"
    INDEX 01 00:36:07
  TRACK 35 AUDIO
    TITLE "0:"
    INDEX 01 00:38:22
  TRACK 36 AUDIO
    TITLE "3:cjc157_4801"
    INDEX 01 00:38:69
  TRACK 37 AUDIO
    TITLE "0:"
    INDEX 01 00:40:21
  TRACK 38 AUDIO
    TITLE "4:cjc157_4802"
    INDEX 01 00:40:66
  TRACK 39 AUDIO
    TITLE "0:"
    INDEX 01 00:42:06
  TRACK 40 AUDIO
    TITLE "5:cjc157_4803"
    INDEX 01 00:42:55
  TRACK 41 AUDIO
    TITLE "0:"
    INDEX 01 00:45:47
  TRACK 42 AUDIO
    TITLE "5:cjc157_4804"
    INDEX 01 00:46:17
  TRACK 43 AUDIO
    TITLE "0:"
    INDEX 01 00:47:72
  TRACK 44 AUDIO
    TITLE "5:cjc157_4805"
    INDEX 01 00:48:48
  TRACK 45 AUDIO
    TITLE "0:"
    INDEX 01 00:50:33
  TRACK 46 AUDIO
    TITLE "3:cjc157_4806"
    INDEX 01 00:51:09
  TRACK 47 AUDIO
    TITLE "0:"
    INDEX 01 00:52:32
  TRACK 48 AUDIO
    TITLE "4:cjc157_4807"
    INDEX 01 00:53:02
  TRACK 49 AUDIO
    TITLE "0:"
    INDEX 01 00:54:07
  TRACK 50 AUDIO
    TITLE "5:cjc157_4808"
    INDEX 01 00:54:54
  TRACK 51 AUDIO
    TITLE "0:"
    INDEX 01 00:57:31
  TRACK 52 AUDIO
    TITLE "5:cjc157_4809"
    INDEX 01 00:58:03
  TRACK 53 AUDIO
    TITLE "0:"
    INDEX 01 00:59:61
  TRACK 54 AUDIO
    TITLE "3:cjc157_4810"
    INDEX 01 01:00:33
  TRACK 55 AUDIO
    TITLE "0:"
    INDEX 01 01:01:58
  TRACK 56 AUDIO
    TITLE "4:cjc157_4811"
    INDEX 01 01:02:30
  TRACK 57 AUDIO
    TITLE "0:"
    INDEX 01 01:07:57
  TRACK 58 AUDIO
    TITLE "5:cjc157_4812"
    INDEX 01 01:08:25
  TRACK 59 AUDIO
    TITLE "0:"
    INDEX 01 01:10:43
  TRACK 60 AUDIO
    TITLE "5:cjc157_4813"
    INDEX 01 01:11:19
  TRACK 61 AUDIO
    TITLE "0:"
    INDEX 01 01:14:02
  TRACK 62 AUDIO
    TITLE "5:cjc157_4814"
    INDEX 01 01:14:45
  TRACK 63 AUDIO
    TITLE "0:"
    INDEX 01 01:16:46
  TRACK 64 AUDIO
    TITLE "3:cjc157_4815"
    INDEX 01 01:17:16
  TRACK 65 AUDIO
    TITLE "0:"
    INDEX 01 01:18:51
  TRACK 66 AUDIO
    TITLE "4:cjc157_4816"
    INDEX 01 01:19:21
  TRACK 67 AUDIO
    TITLE "0:"
    INDEX 01 01:20:36
  TRACK 68 AUDIO
    TITLE "5:cjc157_4817"
    INDEX 01 01:21:06
  TRACK 69 AUDIO
    TITLE "0:"
    INDEX 01 01:24:14
  TRACK 70 AUDIO
    TITLE "3:cjc157_4818"
    INDEX 01 01:24:63
  TRACK 71 AUDIO
    TITLE "0:"
    INDEX 01 01:26:25
  TRACK 72 AUDIO
    TITLE "4:cjc157_4819"
    INDEX 01 01:26:70
  TRACK 73 AUDIO
    TITLE "0:"
    INDEX 01 01:28:08
  TRACK 74 AUDIO
    TITLE "5:cjc157_4820"
    INDEX 01 01:28:55
  TRACK 75 AUDIO
    TITLE "0:"
    INDEX 01 01:30:34
  TRACK 76 AUDIO
    TITLE "5:cjc157_4821"
    INDEX 01 01:31:04
  TRACK 77 AUDIO
    TITLE "0:"
    INDEX 01 01:33:44
  TRACK 78 AUDIO
    TITLE "3:cjc157_4822"
    INDEX 01 01:34:20
  TRACK 79 AUDIO
    TITLE "0:"
    INDEX 01 01:35:45
  TRACK 80 AUDIO
    TITLE "4:cjc157_4823"
    INDEX 01 01:36:19
  TRACK 81 AUDIO
    TITLE "0:"
    INDEX 01 01:37:32
  TRACK 82 AUDIO
    TITLE "5:cjc157_4824"
    INDEX 01 01:38:02
  TRACK 83 AUDIO
    TITLE "0:"
    INDEX 01 01:39:63
  TRACK 84 AUDIO
    TITLE "5:cjc157_4825"
    INDEX 01 01:40:29
  TRACK 85 AUDIO
    TITLE "0:"
    INDEX 01 01:42:12
  TRACK 86 AUDIO
    TITLE "5:cjc157_4826"
    INDEX 01 01:42:59
  TRACK 87 AUDIO
    TITLE "0:"
    INDEX 01 01:45:24
